<svg  version="1.1" viewBox="0 0 700 700" xmlns="http://www.w3.org/2000/svg" xmlns:xlink="http://www.w3.org/1999/xlink">
 <g>
  <path fill="#dddddd" d="m503.07 219.64c-48.531-33.602-101.42-51.645-153.07-51.645s-104.54 18.043-153.07 51.645c-36.09 24.891-57.246 50.398-58.488 51.023l-7.4688 9.332 7.4648 8.7109c0.62109 1.2461 21.777 26.133 58.488 51.023 48.535 34.223 101.43 52.266 153.07 52.266s104.54-18.043 153.07-51.645c36.09-24.891 57.246-50.398 58.488-51.023l7.4648-8.7109-7.4648-9.332c-1.2422-1.2461-22.398-26.133-58.488-51.645zm-153.07 129.42c-39.82 0-72.801-32.355-72.801-72.801s32.98-72.176 72.801-72.176 72.801 32.355 72.801 72.801c0 40.441-32.98 72.176-72.801 72.176z"/>
  <path fill="#dddddd" d="m379.87 276.27c0 16.496-13.371 29.867-29.867 29.867s-29.867-13.371-29.867-29.867c0-16.492 13.371-29.867 29.867-29.867s29.867 13.375 29.867 29.867"/>
 </g>
</svg>
