<svg xmlns="http://www.w3.org/2000/svg" version="1.1" viewBox="-5.0 -10.0 110.0 135.0">
 <path d="m38.621 4.4609h-28.473c-3.4219 0-5.6914 2.2812-5.6914 5.6914v79.691c0 3.4219 2.2812 5.6914 5.6914 5.6914h28.461c3.4219 0 5.6914-2.2812 5.6914-5.6914v-79.695c0-3.4219-2.2812-5.6914-5.6914-5.6914z"/>
 <path d="m89.852 4.4609h-28.461c-3.4219 0-5.6914 2.2812-5.6914 5.6914v79.691c0 3.4219 2.2812 5.6914 5.6914 5.6914h28.461c3.4219 0 5.6914-2.2812 5.6914-5.6914l-0.003907-79.695c0-3.4219-2.2812-5.6914-5.6914-5.6914z"/>
</svg>