<?xml version="1.0" encoding="UTF-8"?>
<svg  version="1.1" viewBox="0 0 700 700" xmlns="http://www.w3.org/2000/svg" xmlns:xlink="http://www.w3.org/1999/xlink">
  <path fill="#bbbbbb" d="m619.77 314.86c5.8867-5.8867 11.031-15.934 10.059-40.426-0.98438-24.496-32.496-46.789-54.141-46.789-24.746 0-55.988-0.0625-74.168-0.0625-13.922 0-25.906-0.72266-25.906-16.168 0-12.492 14.152-25.078 25.352-42.812 13.223-20.945 24.617-41.523 24.617-78.266 0-26.629-15.434-73.496-48.871-73.496-30.754 0-31.602 47.73-42.996 75.332-16.531 40.051-63.57 64.668-79.738 89.285-10.555 16.07-55.41 97.379-66.875 97.379h-27.637v6.1562c0.085937 0.80469 0.21875 1.5977 0.21875 2.4258v226.35c0 0.99609-0.09375 1.9648-0.21875 2.9219v1.8359c5.2344 0.22266 9.4961 0.85547 10.98 2.3398 3.9219 3.9219 12.988 14.207 32.582 14.207h250.61c42.621 0 51.688-41.648 44.828-56.828-2.9609-6.5625-4.6523-11.277 1.4766-14.461 14.184-7.3789 20.574-36.746 12.977-50.953-4.4414-8.3086-5.1445-13.227 0.98047-18.621 13.938-12.273 21.074-41.406 5.6328-60.504-5.2969-6.5469-5.6328-12.98 0.24219-18.848z"/>
  <path fill="#bbbbbb" d="m70.234 252.93v307.07h174.54v-307.07zm87.266 266.93c-17.012 0-30.801-13.793-30.801-30.801s13.789-30.801 30.801-30.801 30.801 13.793 30.801 30.801-13.789 30.801-30.801 30.801z"/>
</svg>
