<svg xmlns="http://www.w3.org/2000/svg" xmlns:xlink="http://www.w3.org/1999/xlink" version="1.1" x="0px" y="0px" viewBox="0 0 100 125" enable-background="new 0 0 100 100" xml:space="preserve"><g><path fill="#ffffff" d="M89.508,39.961h-8.55c-0.528-1.628-1.189-3.216-1.974-4.751l6.049-6.05c1.057-1.057,1.057-2.769,0-3.825l-10.37-10.371   c-1.057-1.056-2.769-1.056-3.825,0l-6.051,6.048c-1.532-0.783-3.12-1.442-4.75-1.972v-8.55c0-1.494-1.212-2.705-2.704-2.705H42.667   c-1.494,0-2.705,1.211-2.705,2.705v8.55c-1.631,0.53-3.22,1.19-4.753,1.975l-6.049-6.05c-1.015-1.014-2.811-1.014-3.825,0   l-10.37,10.373c-1.057,1.057-1.057,2.768,0,3.825l6.048,6.047c-0.783,1.534-1.442,3.121-1.971,4.751h-8.55   c-1.494,0-2.705,1.211-2.705,2.705v14.668c0,1.493,1.211,2.705,2.705,2.705h8.55c0.53,1.631,1.188,3.218,1.971,4.75l-6.048,6.051   c-1.057,1.057-1.057,2.768,0,3.824l10.37,10.372c0.507,0.507,1.195,0.792,1.913,0.792s1.405-0.285,1.913-0.792l6.05-6.051   c1.532,0.783,3.121,1.443,4.752,1.974v8.55c0,1.494,1.211,2.705,2.705,2.705h14.666c1.492,0,2.704-1.211,2.704-2.705V80.96   c1.636-0.532,3.223-1.191,4.755-1.973l6.044,6.049c0.51,0.507,1.196,0.792,1.915,0.792c0.716,0,1.405-0.285,1.912-0.792   l10.37-10.372c1.057-1.057,1.057-2.768,0-3.824l-6.046-6.049c0.781-1.532,1.442-3.121,1.971-4.752h8.55   c1.495,0,2.705-1.212,2.705-2.705V42.666C92.213,41.172,91.003,39.961,89.508,39.961z M86.803,54.629h-7.879   c-1.239,0-2.319,0.842-2.62,2.042c-0.643,2.528-1.646,4.953-2.993,7.207c-0.634,1.063-0.465,2.422,0.412,3.298l5.573,5.576   l-6.545,6.545l-5.571-5.574c-0.874-0.876-2.234-1.043-3.299-0.411c-2.251,1.342-4.678,2.35-7.217,2.994   c-1.196,0.306-2.036,1.385-2.036,2.622v7.877h-9.256v-7.877c0-1.237-0.84-2.316-2.038-2.622c-2.531-0.643-4.958-1.65-7.214-2.994   c-1.066-0.635-2.422-0.465-3.296,0.411l-5.576,5.576l-6.545-6.547l5.573-5.576c0.876-0.876,1.045-2.233,0.411-3.297   c-1.343-2.257-2.349-4.682-2.989-7.208c-0.302-1.2-1.383-2.042-2.622-2.042h-7.879v-9.258h7.879c1.239,0,2.319-0.841,2.623-2.042   c0.638-2.524,1.643-4.95,2.989-7.208c0.633-1.063,0.464-2.421-0.412-3.296l-5.573-5.573l6.545-6.547l5.576,5.576   c0.877,0.877,2.236,1.044,3.299,0.411c2.257-1.349,4.682-2.355,7.208-2.993c1.2-0.304,2.042-1.384,2.042-2.623v-7.879h9.256v7.879   c0,1.239,0.84,2.319,2.042,2.623c2.522,0.638,4.947,1.644,7.205,2.99c1.065,0.633,2.423,0.464,3.297-0.411l5.579-5.575l6.545,6.545   l-5.573,5.576c-0.877,0.875-1.046,2.233-0.412,3.296c1.348,2.264,2.354,4.69,2.99,7.208c0.304,1.201,1.384,2.042,2.623,2.042h7.879   V54.629z"/><path fill="#ffffff" d="M49.998,35.197c-8.162,0-14.802,6.641-14.802,14.804s6.64,14.803,14.802,14.803c8.164,0,14.805-6.64,14.805-14.803   S58.162,35.197,49.998,35.197z M49.998,59.396c-5.18,0-9.393-4.215-9.393-9.394c0-5.18,4.213-9.395,9.393-9.395   s9.395,4.214,9.395,9.395C59.393,55.181,55.178,59.396,49.998,59.396z"/></g></svg>